<svg width="137" height="100" viewBox="0 0 137 100" fill="none" xmlns="http://www.w3.org/2000/svg">
<path d="M123.037 17.2203C122.405 12.1975 114.649 7.70587 102.634 4.57178C93.34 2.15425 81.4917 0.533413 68.4233 0.119045C66.1631 0.0412078 63.8665 0 61.5356 0C51.724 0 42.4507 0.666194 34.2082 1.86351C13.9282 4.7824 0 10.8697 0 17.8957C0 50.1408 13.9282 78.05 34.2082 91.4677C42.4484 96.93 51.724 100 61.5356 100C63.8642 100 66.1609 99.8237 68.4233 99.4918C81.5054 97.555 93.34 90.1399 102.632 79.0092C108.42 72.0588 113.225 63.6776 116.726 54.2707C118.341 55.0262 120.081 55.4429 121.901 55.4429C130.151 55.4429 136.842 46.8739 136.842 36.311C136.842 25.748 130.757 17.9781 123.037 17.2226V17.2203ZM121.901 47.8034C120.914 47.8034 119.969 47.5081 119.11 46.9907C121.092 40.0288 122.378 32.616 122.857 24.8964C126.59 25.6267 129.464 30.448 129.464 36.3087C129.464 42.6593 126.073 47.8011 121.899 47.8011L121.901 47.8034Z" fill="white"/>
</svg>
